<?xml version="1.0" encoding="UTF-8" standalone="no"?>
<svg width="141.111mm" height="84.6667mm"
 viewBox="0 0 400 240"
 xmlns="http://www.w3.org/2000/svg" xmlns:xlink="http://www.w3.org/1999/xlink"  version="1.2" baseProfile="tiny">
<title>Qt SVG Document</title>
<desc>Generated with Qt</desc>
<defs>
</defs>
<g fill="none" stroke="black" stroke-width="1" fill-rule="evenodd" stroke-linecap="square" stroke-linejoin="bevel" >

<g fill="#ffffff" fill-opacity="1" stroke="none" transform="matrix(1,0,0,1,0,0)"
font-family="Ubuntu" font-size="11" font-weight="400" font-style="normal" 
>
<rect x="0" y="0" width="400" height="240"/>
</g>

<g fill="#000000" fill-opacity="1" stroke="none" transform="matrix(1,0,0,1,0,0)"
font-family="Ubuntu" font-size="11" font-weight="400" font-style="normal" 
>
<path vector-effect="none" fill-rule="evenodd" d="M53,193 L53,230 L51,230 L49,230 L47,230 L45,229 L43,229 L41,228 L39,227 L37,227 L35,226 L34,225 L32,224 L30,222 L29,221 L27,220 L26,218 L25,217 L23,215 L22,214 L21,212 L20,210 L19,208 L18,207 L18,205 L17,203 L17,201 L16,199 L16,197 L16,195 L16,193 L53,193"/>
</g>

<g fill="#000000" fill-opacity="1" stroke="none" transform="matrix(1,0,0,1,0,0)"
font-family="Ubuntu" font-size="11" font-weight="400" font-style="normal" 
>
<path vector-effect="none" fill-rule="evenodd" d="M251,230 L199,145 L199,230 L251,230"/>
</g>

<g fill="#000000" fill-opacity="1" stroke="none" transform="matrix(1,0,0,1,0,0)"
font-family="Ubuntu" font-size="11" font-weight="400" font-style="normal" 
>
<path vector-effect="none" fill-rule="evenodd" d="M181,10 L292,191 L294,190 L296,190 L297,189 L299,188 L301,188 L303,187 L305,186 L307,185 L308,184 L310,183 L312,182 L313,181 L315,180 L317,179 L318,177 L320,176 L321,175 L323,173 L324,172 L326,171 L327,169 L328,168 L330,166 L331,165 L332,163 L333,161 L334,160 L335,158 L336,156 L337,155 L338,153 L339,151 L340,149 L341,147 L341,145 L342,144 L343,142 L343,140 L344,138 L344,136 L345,134 L345,132 L345,130 L346,128 L346,126 L346,124 L346,122 L346,120 L346,118 L346,116 L346,114 L346,112 L345,110 L345,108 L345,106 L344,104 L344,102 L343,100 L343,98 L342,96 L341,95 L341,93 L340,91 L339,89 L338,87 L337,85 L336,84 L335,82 L334,80 L333,79 L332,77 L331,75 L330,74 L328,72 L327,71 L326,69 L324,68 L323,66 L321,65 L320,64 L318,63 L317,61 L315,60 L313,59 L312,58 L310,57 L308,56 L306,55 L305,54 L303,53 L301,52 L299,52 L297,51 L295,50 L294,50 L292,49 L290,49 L288,48 L286,48 L284,48 L282,47 L280,47 L278,47 L276,47 L274,47 L272,47 L270,47 L268,47 L266,47 L264,47 L262,47 L260,48 L258,48 L256,49 L254,49 L252,50 L250,50 L248,51 L246,52 L245,52 L243,53 L241,54 L239,55 L237,56 L236,57 L234,58 L232,59 L213,27 L215,26 L217,25 L218,24 L220,23 L222,22 L224,22 L225,21 L227,20 L229,19 L231,18 L233,17 L235,17 L237,16 L238,15 L240,15 L242,14 L244,14 L246,13 L248,13 L250,12 L252,12 L254,12 L256,11 L258,11 L260,11 L262,11 L264,10 L266,10 L268,10 L270,10 L272,10 L274,10 L276,10 L278,10 L280,10 L282,10 L284,11 L286,11 L288,11 L290,11 L292,12 L294,12 L296,12 L298,13 L300,13 L301,14 L303,14 L305,15 L307,16 L309,16 L311,17 L313,18 L315,18 L317,19 L318,20 L320,21 L322,22 L324,23 L326,24 L327,25 L329,26 L331,27 L332,28 L334,29 L336,30 L337,31 L339,32 L341,33 L342,35 L344,36 L345,37 L347,39 L348,40 L350,41 L351,43 L352,44 L354,46 L355,47 L356,49 L358,50 L359,52 L360,53 L361,55 L363,57 L364,58 L365,60 L366,62 L367,63 L368,65 L369,67 L370,68 L371,70 L372,72 L373,74 L373,76 L374,78 L375,79 L376,81 L376,83 L377,85 L378,87 L378,89 L379,91 L379,93 L380,95 L380,97 L381,99 L381,100 L381,102 L382,104 L382,106 L382,108 L382,110 L382,112 L383,114 L383,116 L383,118 L383,120 L383,122 L383,124 L382,126 L382,128 L382,130 L382,132 L382,134 L381,136 L381,138 L381,140 L380,142 L380,144 L380,146 L379,148 L379,150 L378,152 L377,154 L377,156 L376,158 L375,159 L375,161 L374,163 L373,165 L372,167 L371,169 L370,170 L370,172 L369,174 L368,176 L367,177 L365,179 L364,181 L363,182 L362,184 L361,186 L360,187 L358,189 L357,190 L356,192 L355,193 L353,195 L352,196 L350,198 L349,199 L348,201 L346,202 L345,203 L343,205 L342,206 L340,207 L338,208 L337,209 L335,211 L333,212 L332,213 L330,214 L328,215 L327,216 L325,217 L323,218 L321,219 L320,220 L318,220 L316,221 L314,222 L312,223 L310,223 L308,224 L307,225 L305,225 L303,226 L301,226 L299,227 L297,227 L295,228 L293,228 L291,228 L289,229 L287,229 L285,229 L283,230 L281,230 L279,230 L277,230 L275,230 L273,230 L181,80 L181,230 L144,230 L53,80 L53,175 L16,175 L16,10 L53,10 L144,160 L144,10 L181,10"/>
</g>

<g fill="none" stroke="#000000" stroke-opacity="1" stroke-width="1" stroke-linecap="round" stroke-linejoin="round" transform="matrix(1,0,0,1,0,0)"
font-family="Ubuntu" font-size="11" font-weight="400" font-style="normal" 
>
<polyline fill="none" vector-effect="non-scaling-stroke" points="144,10 181,10 " />
<polyline fill="none" vector-effect="non-scaling-stroke" points="181,230 144,230 " />
<polyline fill="none" vector-effect="non-scaling-stroke" points="53,80 144,230 " />
<polyline fill="none" vector-effect="non-scaling-stroke" points="144,160 53,10 " />
<polyline fill="none" vector-effect="non-scaling-stroke" points="144,160 144,10 " />
<polyline fill="none" vector-effect="non-scaling-stroke" points="181,80 181,230 " />
<polyline fill="none" vector-effect="non-scaling-stroke" points="199,230 251,230 " />
<polyline fill="none" vector-effect="non-scaling-stroke" points="199,145 199,230 " />
<polyline fill="none" vector-effect="non-scaling-stroke" points="199,145 251,230 " />
<polyline fill="none" vector-effect="non-scaling-stroke" points="16,10 53,10 " />
<polyline fill="none" vector-effect="non-scaling-stroke" points="16,193 53,193 " />
<polyline fill="none" vector-effect="non-scaling-stroke" points="16,175 53,175 " />
<polyline fill="none" vector-effect="non-scaling-stroke" points="16,175 16,10 " />
<polyline fill="none" vector-effect="non-scaling-stroke" points="53,193 53,230 " />
<polyline fill="none" vector-effect="non-scaling-stroke" points="53,80 53,175 " />
<polyline fill="none" vector-effect="non-scaling-stroke" points="16,193 16,195 16,197 16,199 17,201 17,203 18,205 19,207 19,209 20,211 21,212 22,214 24,216 25,217 26,219 28,220 29,221 31,223 32,224 34,225 36,226 38,227 39,228 41,228 43,229 45,229 47,230 49,230 51,230 53,230 " />
<polyline fill="none" vector-effect="non-scaling-stroke" points="181,80 273,230 " />
<polyline fill="none" vector-effect="non-scaling-stroke" points="292,191 181,10 " />
<polyline fill="none" vector-effect="non-scaling-stroke" points="292,191 294,190 296,190 297,189 299,188 301,188 303,187 305,186 307,185 308,184 310,183 312,182 313,181 315,180 317,179 318,177 320,176 321,175 323,173 324,172 326,171 327,169 328,168 330,166 331,165 332,163 333,161 334,160 335,158 336,156 337,155 338,153 339,151 340,149 341,147 341,145 342,144 343,142 343,140 344,138 344,136 345,134 345,132 345,130 346,128 346,126 346,124 346,122 346,120 346,118 346,116 346,114 346,112 345,110 345,108 345,106 344,104 344,102 343,100 343,98 342,96 341,95 341,93 340,91 339,89 338,87 337,85 336,84 335,82 334,80 333,79 332,77 331,75 330,74 328,72 327,71 326,69 324,68 323,66 321,65 320,64 318,63 317,61 315,60 313,59 312,58 310,57 308,56 306,55 305,54 303,53 301,52 299,52 297,51 295,50 294,50 292,49 290,49 288,48 286,48 284,48 282,47 280,47 278,47 276,47 274,47 272,47 270,47 268,47 266,47 264,47 262,47 260,48 258,48 256,49 254,49 252,50 250,50 248,51 246,52 245,52 243,53 241,54 239,55 237,56 236,57 234,58 232,59 " />
<polyline fill="none" vector-effect="non-scaling-stroke" points="273,230 275,230 277,230 279,230 281,230 283,230 285,229 287,229 289,229 291,229 293,228 295,228 296,227 298,227 300,226 302,226 304,225 306,225 308,224 310,224 312,223 314,222 316,221 317,221 319,220 321,219 323,218 325,217 326,216 328,215 330,214 331,213 333,212 335,211 336,210 338,208 340,207 341,206 343,205 344,203 346,202 347,201 349,199 350,198 352,197 353,195 354,194 356,192 357,191 358,189 359,188 361,186 362,184 363,183 364,181 365,179 366,178 367,176 368,174 369,173 370,171 371,169 372,167 373,165 374,164 374,162 375,160 376,158 377,156 377,154 378,152 378,150 379,148 379,147 380,145 380,143 381,141 381,139 381,137 382,135 382,133 382,131 382,129 382,127 383,125 383,123 383,121 383,119 383,117 383,115 382,113 382,111 382,109 382,107 382,105 381,103 381,101 381,99 380,97 380,95 379,93 379,91 378,89 378,87 377,85 376,83 376,82 375,80 374,78 374,76 373,74 372,72 371,71 370,69 369,67 368,65 367,64 366,62 365,60 364,59 363,57 362,55 360,54 359,52 358,51 357,49 355,47 354,46 353,45 351,43 350,42 348,40 347,39 345,38 344,36 342,35 341,34 339,32 338,31 336,30 334,29 333,28 331,27 329,26 328,25 326,24 324,23 322,22 321,21 319,20 317,19 315,19 313,18 311,17 310,16 308,16 306,15 304,15 302,14 300,13 298,13 296,13 294,12 292,12 290,11 288,11 286,11 284,11 282,10 280,10 278,10 276,10 274,10 272,10 270,10 268,10 266,10 264,10 262,10 260,11 258,11 256,11 254,12 252,12 250,12 248,13 246,13 245,14 243,14 241,15 239,15 237,16 235,17 233,17 231,18 229,19 228,20 226,20 224,21 222,22 220,23 219,24 217,25 215,26 214,27 213,27 " />
<polyline fill="none" vector-effect="non-scaling-stroke" points="232,59 213,27 " />
</g>
</g>
</svg>
