<?xml version="1.0" encoding="UTF-8" standalone="no"?>
<svg width="1725" height="860">
  <rect x="0" y="0" width="1725" height="860" fill="white" stroke="none"/>
  <path stroke="none" fill="black" d="
    M 1020,380 945,280 999,208
    A 370 370 73.75 1 1 999,652
    L 705,260 705,800 585,800 180,260 180,620 60,620 60,60 180,60 585,600 585,60 705,60 1095,580
    A 250 250 73.75 1 0 1095,280
    Z" />
  <path stroke="none" fill="black" d="
    M 180,680 60,680
    A 120 120 90 0 0 180,800
    Z" />
  <path stroke="none" fill="black" d="
    M 765,440 765,800 1075,800
    A 430 430 22.5 0 1 951,688
    Z" />
  <path stroke="none" fill="black" d="
    M 1057,430 1147,544
    A 190 190 73.75 1 0 1143,316
    Z" />
  <path stroke="none" fill="black" d="
    M 907,230 780,60 1076,60
    A 430 430 22.5 0 0 951,172
    Z" />
  <path stroke="none" fill="black" d="
    M 255,60 525,60 525,420
    Z" />
  <path stroke="none" fill="black" d="
    M 240,440 240,800 510,800
    Z" />
</svg>
