<?xml version="1.0" encoding="UTF-8" standalone="no"?>
<svg width="141.111mm" height="84.6667mm"
 viewBox="0 0 400 240"
 xmlns="http://www.w3.org/2000/svg" xmlns:xlink="http://www.w3.org/1999/xlink"  version="1.2" baseProfile="tiny">
<title>Qt SVG Document</title>
<desc>Generated with Qt</desc>
<defs>
</defs>
<g fill="none" stroke="black" stroke-width="1" fill-rule="evenodd" stroke-linecap="square" stroke-linejoin="bevel" >

<g fill="#ffffff" fill-opacity="1" stroke="none" transform="matrix(1,0,0,1,0,0)"
font-family="Ubuntu" font-size="11" font-weight="400" font-style="normal" 
>
<rect x="0" y="0" width="400" height="240"/>
</g>

<g fill="#000000" fill-opacity="1" stroke="none" transform="matrix(1,0,0,1,0,0)"
font-family="Ubuntu" font-size="11" font-weight="400" font-style="normal" 
>
<path vector-effect="none" fill-rule="evenodd" d="M46,197 L46,235 L44,235 L42,235 L40,235 L38,234 L36,234 L35,233 L33,232 L31,232 L29,231 L27,230 L26,229 L24,228 L22,227 L21,225 L19,224 L18,222 L17,221 L15,219 L14,218 L13,216 L12,214 L11,212 L11,211 L10,209 L9,207 L9,205 L9,203 L8,201 L8,199 L8,197 L46,197"/>
</g>

<g fill="#000000" fill-opacity="1" stroke="none" transform="matrix(1,0,0,1,0,0)"
font-family="Ubuntu" font-size="11" font-weight="400" font-style="normal" 
>
<path vector-effect="none" fill-rule="evenodd" d="M254,235 L200,146 L200,235 L254,235"/>
</g>

<g fill="#000000" fill-opacity="1" stroke="none" transform="matrix(1,0,0,1,0,0)"
font-family="Ubuntu" font-size="11" font-weight="400" font-style="normal" 
>
<path vector-effect="none" fill-rule="evenodd" d="M180,5 L296,194 L298,194 L300,193 L302,192 L304,192 L306,191 L308,190 L309,189 L311,188 L313,187 L315,186 L316,185 L318,184 L320,183 L321,182 L323,181 L325,180 L326,178 L328,177 L329,176 L330,174 L332,173 L333,171 L335,170 L336,168 L337,167 L338,165 L339,164 L341,162 L342,160 L343,158 L344,157 L345,155 L345,153 L346,151 L347,150 L348,148 L349,146 L349,144 L350,142 L350,140 L351,138 L351,136 L352,134 L352,132 L352,130 L353,128 L353,126 L353,124 L353,122 L353,120 L353,118 L353,116 L353,114 L353,112 L352,110 L352,108 L352,106 L351,104 L351,102 L350,101 L350,99 L349,97 L349,95 L348,93 L347,91 L347,89 L346,87 L345,86 L344,84 L343,82 L342,80 L341,79 L340,77 L339,75 L337,74 L336,72 L335,71 L334,69 L332,68 L331,66 L329,65 L328,63 L327,62 L325,61 L323,60 L322,58 L320,57 L319,56 L317,55 L315,54 L313,53 L312,52 L310,51 L308,50 L306,49 L304,49 L303,48 L301,47 L299,47 L297,46 L295,46 L293,45 L291,45 L289,44 L287,44 L285,44 L283,44 L281,43 L279,43 L277,43 L275,43 L273,43 L271,44 L269,44 L267,44 L265,44 L263,44 L261,45 L259,45 L257,46 L255,46 L253,47 L252,47 L250,48 L248,49 L246,50 L244,50 L242,51 L241,52 L239,53 L237,54 L235,55 L234,56 L214,23 L216,22 L218,21 L219,20 L221,19 L223,18 L225,17 L226,16 L228,16 L230,15 L232,14 L234,13 L236,12 L237,12 L239,11 L241,10 L243,10 L245,9 L247,9 L249,8 L251,8 L253,7 L255,7 L257,7 L259,6 L261,6 L263,6 L265,6 L267,5 L269,5 L271,5 L273,5 L275,5 L277,5 L279,5 L281,5 L283,5 L285,5 L287,5 L289,6 L291,6 L293,6 L295,6 L297,7 L298,7 L300,8 L302,8 L304,8 L306,9 L308,10 L310,10 L312,11 L314,11 L316,12 L318,13 L320,13 L321,14 L323,15 L325,16 L327,17 L329,18 L330,19 L332,19 L334,20 L336,21 L337,23 L339,24 L341,25 L342,26 L344,27 L346,28 L347,29 L349,31 L350,32 L352,33 L353,35 L355,36 L356,37 L358,39 L359,40 L360,42 L362,43 L363,45 L364,46 L366,48 L367,49 L368,51 L369,52 L370,54 L372,56 L373,57 L374,59 L375,61 L376,62 L377,64 L378,66 L379,68 L380,69 L380,71 L381,73 L382,75 L383,77 L384,79 L384,80 L385,82 L386,84 L386,86 L387,88 L387,90 L388,92 L388,94 L389,96 L389,98 L390,100 L390,102 L390,104 L390,106 L391,108 L391,110 L391,112 L391,114 L391,116 L391,118 L391,120 L391,122 L391,124 L391,126 L391,128 L391,130 L391,132 L391,134 L390,136 L390,138 L390,140 L389,142 L389,143 L388,145 L388,147 L388,149 L387,151 L386,153 L386,155 L385,157 L385,159 L384,161 L383,163 L382,164 L382,166 L381,168 L380,170 L379,172 L378,174 L377,175 L376,177 L375,179 L374,180 L373,182 L372,184 L371,185 L370,187 L369,189 L367,190 L366,192 L365,193 L364,195 L362,196 L361,198 L360,199 L358,201 L357,202 L355,204 L354,205 L352,206 L351,208 L349,209 L348,210 L346,211 L345,213 L343,214 L341,215 L340,216 L338,217 L336,218 L334,219 L333,220 L331,221 L329,222 L327,223 L326,224 L324,225 L322,226 L320,226 L318,227 L316,228 L315,228 L313,229 L311,230 L309,230 L307,231 L305,231 L303,232 L301,232 L299,233 L297,233 L295,233 L293,234 L291,234 L289,234 L287,234 L285,235 L283,235 L281,235 L279,235 L277,235 L276,235 L180,78 L180,235 L142,235 L46,78 L46,178 L8,178 L8,5 L46,5 L142,162 L142,5 L180,5"/>
</g>

<g fill="none" stroke="#000000" stroke-opacity="1" stroke-width="1" stroke-linecap="round" stroke-linejoin="round" transform="matrix(1,0,0,1,0,0)"
font-family="Ubuntu" font-size="11" font-weight="400" font-style="normal" 
>
<polyline fill="none" vector-effect="non-scaling-stroke" points="142,5 180,5 " />
<polyline fill="none" vector-effect="non-scaling-stroke" points="180,235 142,235 " />
<polyline fill="none" vector-effect="non-scaling-stroke" points="46,78 142,235 " />
<polyline fill="none" vector-effect="non-scaling-stroke" points="142,162 46,5 " />
<polyline fill="none" vector-effect="non-scaling-stroke" points="142,162 142,5 " />
<polyline fill="none" vector-effect="non-scaling-stroke" points="180,78 180,235 " />
<polyline fill="none" vector-effect="non-scaling-stroke" points="200,235 254,235 " />
<polyline fill="none" vector-effect="non-scaling-stroke" points="200,146 200,235 " />
<polyline fill="none" vector-effect="non-scaling-stroke" points="200,146 254,235 " />
<polyline fill="none" vector-effect="non-scaling-stroke" points="8,5 46,5 " />
<polyline fill="none" vector-effect="non-scaling-stroke" points="8,197 46,197 " />
<polyline fill="none" vector-effect="non-scaling-stroke" points="8,178 46,178 " />
<polyline fill="none" vector-effect="non-scaling-stroke" points="8,178 8,5 " />
<polyline fill="none" vector-effect="non-scaling-stroke" points="46,197 46,235 " />
<polyline fill="none" vector-effect="non-scaling-stroke" points="46,78 46,178 " />
<polyline fill="none" vector-effect="non-scaling-stroke" points="8,197 8,199 8,201 8,203 9,205 9,207 10,208 11,210 11,212 12,214 13,216 14,217 15,219 16,221 18,222 19,224 21,225 22,226 24,228 25,229 27,230 29,231 31,232 32,232 34,233 36,234 38,234 40,234 42,235 44,235 46,235 " />
<polyline fill="none" vector-effect="non-scaling-stroke" points="180,78 276,235 " />
<polyline fill="none" vector-effect="non-scaling-stroke" points="296,194 180,5 " />
<polyline fill="none" vector-effect="non-scaling-stroke" points="296,194 298,194 300,193 302,192 304,192 306,191 308,190 309,189 311,188 313,187 315,186 316,185 318,184 320,183 321,182 323,181 325,180 326,178 328,177 329,176 330,174 332,173 333,171 335,170 336,168 337,167 338,165 339,164 341,162 342,160 343,158 344,157 345,155 345,153 346,151 347,150 348,148 349,146 349,144 350,142 350,140 351,138 351,136 352,134 352,132 352,130 353,128 353,126 353,124 353,122 353,120 353,118 353,116 353,114 353,112 352,110 352,108 352,106 351,104 351,102 350,101 350,99 349,97 349,95 348,93 347,91 347,89 346,87 345,86 344,84 343,82 342,80 341,79 340,77 339,75 337,74 336,72 335,71 334,69 332,68 331,66 329,65 328,63 327,62 325,61 323,60 322,58 320,57 319,56 317,55 315,54 313,53 312,52 310,51 308,50 306,49 304,49 303,48 301,47 299,47 297,46 295,46 293,45 291,45 289,44 287,44 285,44 283,44 281,43 279,43 277,43 275,43 273,43 271,44 269,44 267,44 265,44 263,44 261,45 259,45 257,46 255,46 253,47 252,47 250,48 248,49 246,50 244,50 242,51 241,52 239,53 237,54 235,55 234,56 " />
<polyline fill="none" vector-effect="non-scaling-stroke" points="276,235 278,235 280,235 282,235 284,235 286,235 288,234 290,234 292,234 294,234 296,233 298,233 300,233 302,232 304,232 306,231 308,231 310,230 312,229 314,229 316,228 317,227 319,227 321,226 323,225 325,224 327,223 328,223 330,222 332,221 334,220 335,219 337,218 339,217 340,215 342,214 344,213 345,212 347,211 348,210 350,208 352,207 353,206 355,204 356,203 357,202 359,200 360,199 362,197 363,196 364,194 365,193 367,191 368,190 369,188 370,186 371,185 373,183 374,181 375,180 376,178 377,176 378,174 379,173 379,171 380,169 381,167 382,165 383,164 384,162 384,160 385,158 386,156 386,154 387,152 387,150 388,148 388,146 389,144 389,142 389,141 390,139 390,137 390,135 391,133 391,131 391,129 391,127 391,125 391,123 391,121 391,119 391,117 391,115 391,113 391,111 391,109 391,107 390,105 390,103 390,101 389,99 389,97 389,95 388,93 388,91 387,89 387,87 386,85 385,83 385,81 384,80 383,78 383,76 382,74 381,72 380,70 379,69 378,67 377,65 376,63 375,62 374,60 373,58 372,56 371,55 370,53 369,52 368,50 366,48 365,47 364,45 362,44 361,42 360,41 358,39 357,38 355,37 354,35 353,34 351,33 349,31 348,30 346,29 345,28 343,26 342,25 340,24 338,23 336,22 335,21 333,20 331,19 330,18 328,17 326,16 324,15 322,15 320,14 319,13 317,12 315,12 313,11 311,10 309,10 307,9 305,9 303,8 301,8 299,7 297,7 296,7 294,6 292,6 290,6 288,6 286,5 284,5 282,5 280,5 278,5 276,5 274,5 272,5 270,5 268,5 266,5 264,6 262,6 260,6 258,7 256,7 254,7 252,8 250,8 248,9 246,9 244,10 242,10 240,11 238,11 236,12 235,13 233,14 231,14 229,15 227,16 225,17 224,18 222,19 220,20 218,21 217,22 215,23 214,23 " />
<polyline fill="none" vector-effect="non-scaling-stroke" points="234,56 214,23 " />
</g>
</g>
</svg>
